<svg xmlns="http://www.w3.org/2000/svg" xmlns:xlink="http://www.w3.org/1999/xlink" version="1.1" id="Layer_1" x="0px" y="0px" width="100%" viewBox="0 0 500 500" enable-background="new 0 0 500 500" xml:space="preserve">
<path xmlns="http://www.w3.org/2000/svg" fill="#FFDE5B" opacity="1.000000" stroke="none" d=" M424.000000,501.000000   C295.312439,501.000000 166.624878,501.000000 37.372292,500.669739   C32.903080,497.479645 32.105350,493.500763 32.107121,488.891418   C32.168003,330.165802 32.174305,171.440155 32.083923,12.714579   C32.080978,7.546489 33.583958,3.673695 38.000000,1.000000   C145.354233,1.000000 252.708450,1.000000 360.692078,1.292990   C363.098358,3.078688 364.997467,4.449036 366.633545,6.082767   C385.726715,25.148811 404.717651,44.317867 423.900269,63.293201   C427.486176,66.840332 429.056091,70.577148 429.039886,75.641655   C428.899200,119.613007 428.959076,163.585007 428.959259,207.556808   C428.959259,209.311188 428.959229,211.065552 428.959229,212.819931   C431.340698,210.992737 432.750122,208.830399 434.181702,206.682846   C437.320282,201.974625 440.089630,196.957169 443.690002,192.632263   C452.818848,181.666290 464.710876,178.034897 478.614349,180.712769   C487.660706,182.455139 494.356079,188.192276 501.000000,194.000000   C501.000000,208.687561 501.000000,223.375122 500.668823,238.618286   C499.920380,239.690735 499.454193,240.175644 499.092804,240.729019   C476.426666,275.441132 453.729279,310.133087 431.205200,344.937195   C429.787689,347.127472 429.134766,350.195892 429.127472,352.858490   C429.003754,398.160950 428.968231,443.464081 429.136292,488.766235   C429.155151,493.844635 427.901154,497.837219 424.000000,501.000000  M268.500000,17.870033   C195.446594,17.870033 122.393196,17.870033 49.302628,17.870033   C49.302628,173.690964 49.302628,328.588257 49.302628,483.709106   C170.263367,483.709106 290.926208,483.709106 411.755035,483.709106   C411.755035,447.567383 411.755035,411.846649 411.755035,374.802734   C406.175568,383.048676 401.345795,390.330505 396.341461,397.490326   C394.935974,399.501251 393.339478,401.728912 391.283478,402.879791   C374.282715,412.396362 357.244598,421.855927 340.018951,430.956421   C332.905243,434.714691 326.880829,430.124695 327.589691,422.046997   C329.117828,404.633850 330.733917,387.228088 332.168274,369.807312   C332.657410,363.866699 334.462860,358.682434 337.821289,353.620758   C361.856903,317.395294 385.682617,281.030212 409.435577,244.618500   C410.971527,242.263962 412.136322,239.155151 412.145386,236.392838   C412.306793,187.237686 412.225739,138.081757 412.333252,88.926300   C412.341644,85.091133 411.355804,83.725998 407.315857,83.782173   C391.655701,83.999954 375.990753,83.872963 360.327576,83.869095   C349.450073,83.866409 346.984406,81.448868 346.981384,70.778786   C346.976990,55.115620 346.980225,39.452450 346.980225,23.789284   C346.980225,22.011181 346.980225,20.233080 346.980225,17.869831   C320.726410,17.869831 295.113220,17.869831 268.500000,17.870033  M374.949982,376.546234   C378.521515,378.855469 382.093079,381.164703 385.972809,383.673218   C416.158081,337.406830 445.950500,291.742493 475.952148,245.757477   C464.518463,238.279129 453.850037,231.301315 442.764893,224.050949   C412.585388,270.306427 382.794617,315.966034 352.765411,361.991150   C360.451599,367.028839 367.400574,371.583344 374.949982,376.546234  M457.462952,201.971725   C455.688416,204.482803 453.913910,206.993896 451.805939,209.976868   C463.207031,217.349045 473.981842,224.316238 484.689301,231.239914   C493.263153,221.019531 493.663116,210.611420 486.165833,203.047180   C477.841858,194.648865 467.005493,194.035812 457.462952,201.971725  M388.489685,66.673080   C393.068573,66.673080 397.647461,66.673080 400.946136,66.673080   C388.750946,54.358414 376.272400,41.757618 363.838623,29.202032   C363.838623,40.383656 363.753418,52.139610 363.998749,63.888664   C364.018585,64.838432 366.275482,66.488380 367.544678,66.540070   C374.184875,66.810516 380.841797,66.669975 388.489685,66.673080  M367.818024,391.648743   C361.449799,387.525391 355.081543,383.402039 347.925995,378.768921   C346.957886,389.090912 346.070557,398.551727 345.091217,408.993408   C354.185883,403.976837 362.532196,399.373047 371.287994,394.543365   C370.074219,393.482513 369.241638,392.754822 367.818024,391.648743  z"/>
<path fill="#E4E2AA" opacity="1.000000" stroke="none" d=" M268.019653,155.970673   C237.528519,155.977753 207.037384,155.989639 176.546249,155.975662   C175.233444,155.975067 173.920715,155.736099 172.777405,155.311462   C179.296783,154.733459 185.646729,154.452148 191.996674,154.170837   C217.024567,154.448792 242.052460,154.726746 267.545837,155.266632   C268.011292,155.528549 268.019653,155.970673 268.019653,155.970673  z"/>
<path fill="#D7D6A3" opacity="1.000000" stroke="none" d=" M268.486267,155.976913   C268.019653,155.970673 268.011292,155.528549 268.013916,155.308105   C291.685394,155.073257 315.354218,155.058868 339.509949,155.287430   C339.996826,155.530380 340.010406,155.992935 340.010406,155.992935   C316.324585,155.989685 292.638733,155.986420 268.486267,155.976913  z"/>
<path fill="#E6E4C9" opacity="1.000000" stroke="none" d=" M191.532196,154.113449   C185.646729,154.452148 179.296783,154.733459 172.479980,155.020676   C157.661514,155.016373 143.309891,155.006165 128.492462,154.996033   C129.571335,154.648758 131.115494,154.002243 132.660812,153.999466   C152.129684,153.964310 171.598724,154.022049 191.532196,154.113449  z"/>
<path fill="#E6E4C9" opacity="1.000000" stroke="none" d=" M340.477966,155.993774   C340.010406,155.992935 339.996826,155.530380 339.975525,155.300507   C350.785858,155.172897 361.617432,155.275162 372.761353,155.661194   C362.364288,155.961502 351.654907,155.978058 340.477966,155.993774  z"/>
<path fill="#F9AC84" opacity="1.000000" stroke="none" d=" M230.887115,280.021210   C231.266174,275.958801 231.645248,271.896362 232.517029,267.417114   C235.684982,266.999786 238.360184,266.999359 241.183411,267.305908   C243.271591,270.664398 245.211746,273.715912 246.976120,276.490936   C249.947311,273.441162 252.728378,270.714264 255.324890,267.821655   C255.894516,267.187073 255.807327,265.962921 256.488983,265.003540   C281.283508,264.986267 305.611664,264.975739 329.986877,265.001740   C330.033905,265.038300 330.122742,265.117737 330.122742,265.117737   C328.711090,269.796509 327.299469,274.475311 325.640747,279.554810   C325.393646,279.955536 324.951569,279.993469 324.708069,280.011749   C324.201050,280.177399 323.937531,280.324738 323.674042,280.472107   C324.079071,280.655670 324.484100,280.839233 324.951233,281.012634   C325.013306,281.002441 325.137970,280.985107 325.137970,280.985107   C323.443298,286.052551 321.748596,291.120026 320.020691,296.595673   C319.987457,297.003876 319.842285,297.024933 319.390259,297.018372   C306.284637,297.018311 293.631012,297.024841 280.738251,297.020996   C280.499115,297.010620 280.020996,296.986084 280.025330,296.609680   C277.618683,291.528625 275.207733,286.823975 273.283691,282.077942   C285.958954,282.036560 298.147400,282.036560 310.335815,282.036560   C310.322479,281.351044 310.309143,280.665497 310.295807,279.979980   C283.904846,279.979980 257.513885,279.979980 231.063843,279.989624   C231.004776,279.999237 230.887115,280.021210 230.887115,280.021210  z"/>
<path fill="#F9AC84" opacity="1.000000" stroke="none" d=" M367.095917,233.041336   C361.262024,238.269714 355.428162,243.498093 348.964386,248.533508   C342.911041,248.227219 337.485474,247.971130 332.065002,248.053055   C328.704132,248.103867 325.350983,248.667679 321.595337,249.000900   C320.132050,249.000580 319.067810,249.000595 317.709473,248.703201   C305.222168,248.236557 293.028931,248.067337 280.835724,247.898102   C284.717194,242.418777 283.740753,238.575867 277.516418,233.349030   C285.853058,233.015366 293.894073,233.003738 301.932556,233.328613   C301.438354,234.775742 300.946594,235.886353 300.468323,236.966553   C307.033875,240.530792 309.737000,240.161469 314.899445,235.702667   C316.311615,234.483002 318.255249,233.878693 320.405182,232.992126   C323.883728,232.698151 326.912079,232.404022 330.321045,232.077667   C331.464661,232.056534 332.227661,232.067627 333.299622,232.358246   C344.771057,232.772293 355.933502,232.906815 367.095917,233.041336  z"/>
<path fill="#F9AC84" opacity="1.000000" stroke="none" d=" M318.003601,249.000610   C319.067810,249.000595 320.132050,249.000580 322.064636,249.000397   C331.007965,249.030396 339.082886,249.060577 347.157806,249.090729   C345.304810,249.722900 343.495758,250.588242 341.591248,250.947037   C333.146851,252.537979 331.225769,254.667160 330.962677,263.800842   C330.951385,264.644348 330.942474,264.813965 330.933533,264.983551   C330.933533,264.983551 330.525452,265.039124 330.324097,265.078430   C330.122742,265.117737 330.033905,265.038300 329.705078,264.702698   C327.574402,264.245148 325.772705,264.020416 323.970642,264.016998   C301.623810,263.974701 279.276855,263.964630 256.984375,263.597626   C260.335114,255.386566 265.732880,250.647812 274.764313,250.868866   C276.122742,250.902100 277.512421,249.660004 279.138489,248.995087   C279.556763,248.977539 279.724182,248.972748 280.366913,248.978821   C293.229370,248.993332 305.616486,248.996964 318.003601,249.000610  z"/>
<path fill="#F9AC84" opacity="1.000000" stroke="none" d=" M350.052979,214.989426   C349.225555,210.133194 348.398132,205.276978 347.268677,199.912338   C346.698120,198.945633 346.429626,198.487320 346.161102,198.029022   C344.378418,197.317947 342.635101,196.475922 340.804108,195.925507   C337.815002,195.026871 334.768738,194.318420 330.742126,193.267593   C331.463928,190.824768 332.208405,188.305206 333.235748,185.236633   C333.702698,184.158768 333.886749,183.629868 334.070801,183.100983   C335.747589,183.084061 337.424347,183.067139 339.656464,183.331360   C340.811859,184.064331 341.411957,184.516174 342.012024,184.968018   C355.375000,194.626266 363.910034,207.746887 369.085968,223.170288   C369.836914,225.407990 369.482025,228.016800 368.888519,230.729675   C357.371277,230.966690 346.604431,230.927917 336.026733,230.597778   C339.322906,227.366760 342.578033,225.313339 347.277985,226.499069   C350.246490,227.247986 352.692963,226.607758 351.322845,222.335373   C350.699890,220.392715 350.910339,218.182755 350.709076,215.866211   C350.560944,215.332855 350.353485,215.116531 350.052979,214.989426  z"/>
<path fill="#F9AC84" opacity="1.000000" stroke="none" d=" M320.116302,298.011841   C321.065063,302.741150 322.013824,307.470428 322.946716,312.592529   C322.930908,312.985352 322.805939,312.994263 322.356445,312.996277   C307.613617,312.999481 293.320251,313.000702 278.963623,313.000000   C278.900330,312.998047 278.775208,312.978485 278.775208,312.978485   C279.233307,308.234894 279.691376,303.491272 280.334961,298.367676   C280.520508,297.987640 280.996918,297.965790 281.465881,297.977173   C294.567078,297.981201 307.199310,297.973816 319.902649,297.978088   C319.973816,297.989777 320.116302,298.011841 320.116302,298.011841  z"/>
<path fill="#F9AC84" opacity="1.000000" stroke="none" d=" M323.090485,314.005249   C323.851166,317.500153 324.611877,320.995087 325.428406,324.746521   C308.807648,324.746521 292.243591,324.746521 274.979614,324.746521   C276.079956,321.206757 277.076019,318.002563 278.305695,314.405090   C278.539337,314.011810 278.994354,313.990234 279.463623,313.995300   C294.238953,314.003021 308.545044,314.005707 322.911011,314.009369   C322.970886,314.010376 323.090485,314.005249 323.090485,314.005249  z"/>
<path fill="#F9AC84" opacity="1.000000" stroke="none" d=" M235.039124,296.955353   C233.696152,292.236359 232.353180,287.517334 231.032074,282.404205   C231.053909,282.010071 231.180740,282.021149 231.630234,282.012146   C245.097397,282.025787 258.115082,282.048462 270.978424,282.372864   C266.722534,289.124023 261.008789,293.694031 253.827179,296.972076   C253.018784,297.001831 252.557266,297.016785 251.623016,297.018921   C246.094940,297.004395 241.039597,297.002655 235.748062,296.987305   C235.511887,296.973663 235.039108,296.955353 235.039124,296.955353  z"/>
<path fill="#E4E2AA" opacity="1.000000" stroke="none" d=" M333.779541,182.785538   C333.886749,183.629868 333.702698,184.158768 333.290710,184.858490   C331.006073,184.684555 328.949646,184.040695 326.892578,184.038681   C274.785645,183.987732 222.678665,184.004105 170.571701,184.008652   C168.773621,184.008804 166.975540,184.008652 165.177460,184.008652   C165.166367,183.668961 165.155273,183.329285 165.144180,182.989594   C166.800400,182.989594 168.456604,182.989578 170.112823,182.989594   C202.742111,182.989761 235.371948,183.105591 268.000458,182.947311   C288.027130,182.850159 308.051575,182.319153 328.077667,182.028976   C329.878693,182.002884 331.684631,182.315033 333.779541,182.785538  z"/>
<path fill="#DFD9A5" opacity="1.000000" stroke="none" d=" M168.424698,327.968964   C235.261475,327.968964 302.098267,327.968964 368.935028,327.968964   C368.934906,328.317841 368.934784,328.666748 368.934662,329.015625   C302.392273,329.015625 235.849869,329.015625 168.808762,328.757751   C168.348282,328.322937 168.386490,328.145935 168.424698,327.968964  z"/>
<path fill="#D1CE9F" opacity="1.000000" stroke="none" d=" M345.836639,198.311661   C346.429626,198.487320 346.698120,198.945633 346.984161,199.682556   C287.726227,199.982422 228.450806,200.003662 168.701294,199.846390   C168.232224,199.400955 168.312881,199.159271 168.469162,198.942841   C226.340668,198.963959 284.212189,198.987442 342.083679,198.988968   C343.226501,198.988998 344.369354,198.731598 345.836639,198.311661  z"/>
<path fill="#FE423C" opacity="1.000000" stroke="none" d=" M168.338165,327.582825   C168.386490,328.145935 168.348282,328.322937 168.366699,328.765625   C168.663605,333.158203 166.653442,334.474213 162.690216,334.107269   C159.277405,333.791260 155.812134,334.041718 151.690033,334.041718   C151.690033,328.830627 151.618195,324.088959 151.763626,319.353943   C151.786758,318.600922 152.815781,317.221039 153.330612,317.243744   C157.914215,317.446136 162.486786,317.898834 166.588760,318.705170   C162.176117,319.132568 158.237350,319.132568 154.087143,319.132568   C154.087143,323.699921 154.087143,327.686005 154.087143,331.685791   C158.255341,331.685791 161.995667,331.685791 165.684723,331.685791   C165.684723,329.652252 165.684723,327.924500 165.684723,325.533722   C163.316437,327.327972 161.449799,328.742157 159.191910,330.452759   C157.802322,328.273315 156.680725,326.514191 155.559128,324.755066   C155.966980,324.457794 156.374817,324.160522 156.782669,323.863220   C157.929047,324.580841 159.075424,325.298431 160.297180,326.063232   C162.687393,323.806396 164.851883,321.762695 167.016357,319.718964   C171.103531,321.604370 166.809967,324.874237 168.338165,327.582825  z"/>
<path fill="#F9AC84" opacity="1.000000" stroke="none" d=" M267.843964,214.906021   C273.660767,203.386597 285.060486,203.132217 293.499573,214.648407   C284.743286,214.948761 276.293610,214.927399 267.843964,214.906021  z"/>
<path fill="#F9AC84" opacity="1.000000" stroke="none" d=" M231.997147,264.032135   C233.646729,259.266327 235.296310,254.500488 237.217163,249.368073   C237.488419,249.001465 237.944473,248.976410 238.411682,248.983704   C242.649612,249.028122 246.420364,249.065262 250.005310,249.389923   C248.688599,251.042023 247.827393,252.953156 246.376419,253.669220   C241.920761,255.868149 240.373169,259.316132 240.466339,264.056824   C237.428589,264.397614 234.780228,264.681549 232.131882,264.965454   C232.131882,264.965454 232.063919,264.987793 232.036743,264.750885   C232.009583,264.513977 231.997147,264.032135 231.997147,264.032135  z"/>
<path fill="#FD5247" opacity="1.000000" stroke="none" d=" M168.384277,287.982391   C168.403351,290.674835 168.422455,293.367279 168.349548,296.669861   C168.174301,297.530212 168.162399,297.783813 168.221863,298.040833   C163.222961,298.440979 158.227127,298.907776 153.220428,299.138794   C152.716751,299.162018 151.711288,297.775421 151.681259,297.013824   C151.523987,293.025574 151.421112,289.012756 151.745804,285.044983   C151.819565,284.143524 153.591187,282.817261 154.706787,282.675812   C157.494766,282.322235 160.354782,282.536713 163.929749,282.523743   C165.461212,282.633606 166.248810,282.742950 167.036423,282.852295   C167.042542,283.322601 167.048676,283.792877 167.030975,284.613220   C167.007156,284.963257 167.048904,284.977783 166.579529,284.973206   C162.074966,284.968628 158.039764,284.968628 154.207764,284.968628   C154.207764,289.524933 154.207764,293.217316 154.207764,296.803467   C158.344391,296.803467 162.032639,296.803467 166.010635,296.803467   C166.010635,294.568817 166.010635,292.763367 166.027176,290.653046   C166.823898,289.559570 167.604095,288.770966 168.384277,287.982391  z"/>
<path fill="#FD5247" opacity="1.000000" stroke="none" d=" M167.793427,232.887695   C163.669296,232.960907 159.539810,232.930496 155.422974,233.144211   C152.731430,233.283920 151.319458,232.401459 151.523880,229.558243   C151.559280,229.065781 151.522995,228.567886 151.514160,228.072601   C151.303772,216.283218 151.303619,216.283218 163.899841,216.144699   C165.595901,216.439362 166.484619,216.731430 167.361542,217.281738   C167.338715,217.712021 167.327698,217.884018 167.127686,218.349609   C166.946259,218.875931 166.953827,219.108658 166.890121,219.481369   C166.690582,219.794403 166.525452,219.918259 166.085968,219.600616   C161.964844,219.208267 158.081192,219.208267 154.104279,219.208267   C154.104279,223.226105 154.104279,226.934540 154.104279,230.749680   C158.197937,230.749680 161.920380,230.749680 165.783844,230.749680   C165.878723,228.619919 165.959244,226.812881 166.026535,225.025146   C166.013321,225.044464 165.966309,225.040268 166.247192,224.861298   C166.693802,224.272385 166.859528,223.862442 167.026978,223.426849   C167.028687,223.401199 167.021439,223.405945 167.354980,223.570892   C167.859161,226.474930 168.029831,229.214020 168.081360,232.179199   C167.905975,232.566101 167.849701,232.726898 167.793427,232.887695  z"/>
<path fill="#D7D6A3" opacity="1.000000" stroke="none" d=" M168.277008,232.921997   C167.849701,232.726898 167.905975,232.566101 168.534348,232.195724   C203.441254,231.656357 237.776062,231.326538 272.417542,231.019043   C273.483337,231.357178 274.242493,231.672989 275.026367,232.214966   C275.051147,232.441116 275.120026,232.890884 275.120026,232.890884   C239.666870,232.912689 204.213730,232.934479 168.277008,232.921997  z"/>
<path fill="#FD5247" opacity="1.000000" stroke="none" d=" M168.467041,198.487457   C168.312881,199.159271 168.232224,199.400955 168.249969,199.861053   C166.162094,201.594543 154.351852,202.690033 152.694763,201.371979   C152.131516,200.923981 151.644363,200.012375 151.629791,199.302185   C151.535522,194.706345 151.581512,190.107635 151.581512,184.206787   C157.244080,184.999451 162.151535,185.686417 166.604889,186.730865   C162.099075,187.088364 158.047348,187.088364 154.175842,187.088364   C154.175842,191.735519 154.175842,195.594894 154.175842,199.376862   C158.307678,199.376862 161.991791,199.376862 165.942459,199.376862   C165.942459,196.979767 165.942459,195.008667 166.128662,192.940216   C166.630066,192.339981 166.945251,191.837082 167.260452,191.334183   C167.661942,193.566818 168.063431,195.799454 168.467041,198.487457  z"/>
<path fill="#E4E2AA" opacity="1.000000" stroke="none" d=" M230.991638,281.996826   C210.516586,281.983612 190.103806,281.983612 169.691040,281.983612   C169.691223,281.325195 169.691391,280.666779 169.691559,280.008362   C189.785294,280.008362 209.879028,280.008362 230.429932,280.014771   C230.887115,280.021210 231.004776,279.999237 231.026215,280.330292   C231.092026,281.114624 231.136383,281.567871 231.180756,282.021149   C231.180740,282.021149 231.053909,282.010071 230.991638,281.996826  z"/>
<path fill="#F6E7AB" opacity="1.000000" stroke="none" d=" M167.072617,253.287491   C167.072617,253.287491 167.035126,253.438797 166.788467,253.783325   C164.503433,256.036255 162.465042,257.944641 160.468704,259.813660   C158.961426,259.133392 157.653244,258.542969 156.345062,257.952545   C156.042786,258.293823 155.740509,258.635101 155.438232,258.976349   C156.756897,260.716858 158.075562,262.457336 159.523865,264.368927   C162.018478,262.288757 164.026337,260.614471 166.057632,259.391693   C165.956741,261.771912 165.832413,263.700592 165.704193,265.689606   C161.595001,265.689606 157.863586,265.689606 153.976807,265.689606   C153.976807,261.499817 153.976807,257.613403 153.976807,253.287491   C158.540909,253.287491 162.806763,253.287491 167.072617,253.287491  z"/>
<path fill="#F6E7AB" opacity="1.000000" stroke="none" d=" M165.942459,193.037567   C165.942459,195.008667 165.942459,196.979767 165.942459,199.376862   C161.991791,199.376862 158.307678,199.376862 154.175842,199.376862   C154.175842,195.594894 154.175842,191.735519 154.175842,187.088364   C158.047348,187.088364 162.099075,187.088364 166.615875,187.192291   C167.080948,187.296234 167.042252,187.435440 166.766724,187.747681   C164.422974,189.979263 162.354767,191.898605 160.347122,193.761734   C158.857925,193.060501 157.573929,192.455887 156.289917,191.851257   C155.983536,192.214127 155.677170,192.576981 155.370789,192.939835   C156.683411,194.634109 157.996048,196.328384 159.436127,198.187180   C161.825500,196.296036 163.883987,194.666794 165.942459,193.037567  z"/>
<path fill="#E4E2AA" opacity="1.000000" stroke="none" d=" M167.373337,217.023483   C166.484619,216.731430 165.595901,216.439362 164.355835,216.080032   C165.894928,215.676895 167.784805,215.051880 169.675903,215.048203   C201.808029,214.985657 233.940308,215.000229 266.526855,215.260712   C266.961426,215.695343 266.941711,215.867035 266.461395,216.027039   C233.125000,216.351410 200.249161,216.687454 167.373337,217.023483  z"/>
<path fill="#FE423C" opacity="1.000000" stroke="none" d=" M167.069366,252.828003   C162.806763,253.287491 158.540909,253.287491 153.976807,253.287491   C153.976807,257.613403 153.976807,261.499817 153.976807,265.689606   C157.863586,265.689606 161.595001,265.689606 165.704193,265.689606   C165.832413,263.700592 165.956741,261.771912 166.042114,259.414001   C166.003159,258.984802 165.965042,259.023529 166.263123,259.011566   C166.712540,258.870575 166.863907,258.741547 167.015259,258.612549   C167.425751,260.115204 167.836258,261.617859 168.275330,263.817749   C168.346359,264.707886 168.388809,264.900818 168.431244,265.093719   C167.922989,268.338867 165.497345,268.036743 163.131973,268.057129   C151.531952,268.157135 151.748352,268.172882 151.496735,256.644318   C151.395126,251.988831 152.883774,250.222885 157.423325,250.951401   C160.630783,251.466125 163.851379,251.899063 167.069366,252.828003  z"/>
<path fill="#F6E7AB" opacity="1.000000" stroke="none" d=" M167.028564,319.579468   C164.851883,321.762695 162.687393,323.806396 160.297180,326.063232   C159.075424,325.298431 157.929047,324.580841 156.782669,323.863220   C156.374817,324.160522 155.966980,324.457794 155.559128,324.755066   C156.680725,326.514191 157.802322,328.273315 159.191910,330.452759   C161.449799,328.742157 163.316437,327.327972 165.684723,325.533722   C165.684723,327.924500 165.684723,329.652252 165.684723,331.685791   C161.995667,331.685791 158.255341,331.685791 154.087143,331.685791   C154.087143,327.686005 154.087143,323.699921 154.087143,319.132568   C158.237350,319.132568 162.176117,319.132568 166.584259,319.146362   C167.053619,319.160187 167.040771,319.439972 167.028564,319.579468  z"/>
<path fill="#D7D6A3" opacity="1.000000" stroke="none" d=" M278.994354,313.990234   C278.994354,313.990234 278.539337,314.011810 278.312500,314.016144   C240.826675,314.020477 203.567657,314.020477 166.308624,314.020477   C166.307434,313.676544 166.306229,313.332611 166.305038,312.988678   C203.498810,312.988678 240.692581,312.988678 278.330780,312.983582   C278.775208,312.978485 278.900330,312.998047 278.941437,313.246582   C278.982544,313.495148 278.994354,313.990234 278.994354,313.990234  z"/>
<path fill="#FEFEF9" opacity="1.000000" stroke="none" d=" M136.620255,255.993378   C135.439041,253.870880 134.547211,251.984818 133.160965,249.053146   C137.964005,248.584305 141.697174,248.219894 146.139099,247.786301   C145.522049,251.299530 145.080963,253.810883 144.503220,257.100342   C141.895401,256.801392 139.402527,256.515594 136.620255,255.993378  z"/>
<path fill="#FEFEF9" opacity="1.000000" stroke="none" d=" M134.525696,289.566498   C137.304047,288.641449 139.816284,287.728882 142.367630,287.601868   C143.181702,287.561310 145.002304,289.832764 144.795837,290.651093   C144.239319,292.856689 143.298843,296.085419 141.684006,296.686310   C137.463821,298.256683 134.223099,294.905121 134.525696,289.566498  z"/>
<path fill="#FEFEF9" opacity="1.000000" stroke="none" d=" M137.501465,323.108124   C140.040253,323.042053 142.148773,323.042053 145.374695,323.042053   C144.731857,326.380737 145.046936,329.989380 143.424194,331.460510   C142.195770,332.574188 137.693573,331.817596 136.106232,330.333710   C134.307114,328.651825 133.807388,325.178741 137.501465,323.108124  z"/>
<path fill="#F9AC84" opacity="1.000000" stroke="none" d=" M250.191101,249.102417   C246.420364,249.065262 242.649612,249.028122 238.411499,248.727005   C237.936066,248.291931 237.927979,248.120819 237.919922,247.949738   C238.259827,247.387177 238.522247,246.755066 238.953552,246.274567   C240.513229,244.537064 242.417831,241.235214 243.668716,241.458374   C246.953812,242.044434 250.982498,242.802673 251.947067,247.843002   C251.942871,248.611267 251.921967,248.777161 251.616425,248.971771   C250.951538,249.034470 250.571320,249.068436 250.191101,249.102417  z"/>
<path fill="#DFD9A5" opacity="1.000000" stroke="none" d=" M237.459076,247.964661   C237.927979,248.120819 237.936066,248.291931 237.944305,248.719727   C237.944473,248.976410 237.488419,249.001465 237.260498,249.009979   C213.101883,249.018494 189.171158,249.018494 165.240448,249.018494   C165.239029,248.672195 165.237610,248.325897 165.236191,247.979599   C189.156876,247.979599 213.077576,247.979599 237.459076,247.964661  z"/>
<path fill="#FEFEF9" opacity="1.000000" stroke="none" d=" M144.927307,274.691742   C142.654541,275.939819 140.426788,276.749939 138.256470,277.539154   C135.115845,268.202576 135.938919,267.149811 144.972321,268.590088   C144.972321,270.397339 144.972321,272.325531 144.927307,274.691742  z"/>
<path fill="#FFFFFF" opacity="1.000000" stroke="none" d=" M140.134338,208.976135   C144.665466,208.297180 145.376984,210.546722 144.988449,213.935593   C144.398468,219.081497 140.961731,218.093048 136.879318,217.560913   C139.237152,214.847214 131.976730,210.101868 140.134338,208.976135  z"/>
<path fill="#ECA07D" opacity="1.000000" stroke="none" d=" M335.837555,230.889130   C346.604431,230.927917 357.371277,230.966690 368.616577,231.014099   C368.604004,231.612778 368.113037,232.202835 367.358978,232.917114   C355.933502,232.906815 344.771057,232.772293 333.587128,232.298950   C334.010590,231.628265 334.455597,231.296371 335.134827,230.945618   C335.369080,230.926727 335.837555,230.889130 335.837555,230.889130  z"/>
<path fill="#D7D6A3" opacity="1.000000" stroke="none" d=" M168.674149,298.028687   C168.162399,297.783813 168.174301,297.530212 168.354889,297.117462   C190.332565,296.962280 212.212936,296.969666 234.566193,296.966187   C235.039108,296.955353 235.511887,296.973663 235.739044,297.247986   C235.957169,297.695984 235.948166,297.869659 235.939148,298.043365   C213.668243,298.034424 191.397339,298.025482 168.674149,298.028687  z"/>
<path fill="#D1CE9F" opacity="1.000000" stroke="none" d=" M168.868652,265.073730   C168.388809,264.900818 168.346359,264.707886 168.357361,264.223633   C189.294083,263.961151 210.177322,263.989990 231.528870,264.025452   C231.997147,264.032135 232.009583,264.513977 232.001190,264.754761   C211.097229,265.014923 190.201660,265.034302 168.868652,265.073730  z"/>
<path fill="#E4E2AA" opacity="1.000000" stroke="none" d=" M342.306885,184.675171   C341.411957,184.516174 340.811859,184.064331 340.074890,183.362869   C341.303497,182.743820 342.664642,182.075165 344.035339,182.054962   C351.312622,181.947662 358.592377,181.981079 365.870972,182.024490   C367.039642,182.031464 368.206543,182.334915 369.374268,182.501297   C369.355743,183.128311 369.337219,183.755325 369.318695,184.382339   C360.413055,184.382339 351.507385,184.382339 342.306885,184.675171  z"/>
<path fill="#DFD9A5" opacity="1.000000" stroke="none" d=" M349.579224,214.994324   C350.353485,215.116531 350.560944,215.332855 350.269196,215.835938   C331.902130,216.027328 313.941254,216.021149 295.748230,216.006622   C295.516083,215.998276 295.051331,215.983307 295.048859,215.736176   C295.046387,215.489044 295.028046,214.995071 295.028046,214.995071   C313.053833,214.996460 331.079651,214.997833 349.579224,214.994324  z"/>
<path fill="#ECA07D" opacity="1.000000" stroke="none" d=" M275.407104,232.929550   C275.120026,232.890884 275.051147,232.441116 275.320984,231.919571   C284.130829,231.227432 292.670807,231.056839 301.414124,230.903839   C301.617493,230.921417 302.019501,230.992523 302.010803,231.326111   C301.979767,232.103836 301.957428,232.547958 301.935059,232.992096   C293.894073,233.003738 285.853058,233.015366 277.328369,233.058228   C276.461151,233.049026 276.077637,233.008621 275.407104,232.929550  z"/>
<path fill="#FE423C" opacity="1.000000" stroke="none" d=" M168.626892,287.736267   C167.604095,288.770966 166.823898,289.559570 165.682251,290.723053   C163.432541,292.634583 161.544296,294.171204 159.209351,296.071350   C157.786697,293.810425 156.621964,291.959442 155.457230,290.108429   C155.823456,289.590546 156.189682,289.072632 156.555908,288.554749   C159.405487,292.134521 161.511887,290.726501 163.562210,288.436859   C164.652451,287.219360 165.882141,286.126770 167.048904,284.977783   C167.048904,284.977783 167.007156,284.963257 166.993454,284.979736   C167.609665,285.827545 168.239578,286.658813 168.626892,287.736267  z"/>
<path fill="#FE423C" opacity="1.000000" stroke="none" d=" M166.018677,258.962494   C164.026337,260.614471 162.018478,262.288757 159.523865,264.368927   C158.075562,262.457336 156.756897,260.716858 155.438232,258.976349   C155.740509,258.635101 156.042786,258.293823 156.345062,257.952545   C157.653244,258.542969 158.961426,259.133392 160.468704,259.813660   C162.465042,257.944641 164.503433,256.036255 166.773315,253.859802   C169.913696,254.691803 168.924561,256.232666 167.013489,258.049713   C166.237579,258.436951 166.044769,258.686523 165.965042,259.023529   C165.965042,259.023529 166.003159,258.984802 166.018677,258.962494  z"/>
<path fill="#F0A47F" opacity="1.000000" stroke="none" d=" M236.151505,298.340881   C235.948166,297.869659 235.957169,297.695984 235.975220,297.261627   C241.039597,297.002655 246.094940,297.004395 251.595474,297.259277   C252.040649,297.512421 251.990463,297.994110 251.990463,297.994110   C246.880707,300.612793 241.770569,303.222229 236.151505,298.340881  z"/>
<path fill="#FE423C" opacity="1.000000" stroke="none" d=" M166.128662,192.940216   C163.883987,194.666794 161.825500,196.296036 159.436127,198.187180   C157.996048,196.328384 156.683411,194.634109 155.370789,192.939835   C155.677170,192.576981 155.983536,192.214127 156.289917,191.851257   C157.573929,192.455887 158.857925,193.060501 160.347122,193.761734   C162.354767,191.898605 164.422974,189.979263 166.748779,187.817657   C167.355591,188.637604 167.704819,189.699799 167.657257,191.048096   C166.945251,191.837082 166.630066,192.339981 166.128662,192.940216  z"/>
<path fill="#D7D6A3" opacity="1.000000" stroke="none" d=" M320.059937,296.992798   C336.371704,296.981689 352.610992,296.981689 368.850281,296.981689   C368.852020,297.320282 368.853790,297.658875 368.855530,297.997467   C352.913818,297.997467 336.972076,297.997467 320.573303,298.004639   C320.116302,298.011841 319.973816,297.989777 319.937805,297.743164   C319.901794,297.496582 319.842285,297.024933 319.842285,297.024933   C319.842285,297.024933 319.987457,297.003876 320.059937,296.992798  z"/>
<path fill="#D7D6A3" opacity="1.000000" stroke="none" d=" M322.993439,312.988708   C338.315613,312.992096 353.575226,312.992096 368.834869,312.992096   C368.836945,313.327576 368.839020,313.663025 368.841095,313.998505   C353.897186,313.998505 338.953247,313.998505 323.549927,314.001892   C323.090485,314.005249 322.970886,314.010376 322.934692,313.754150   C322.867676,313.330078 322.836792,313.162170 322.805939,312.994263   C322.805939,312.994263 322.930908,312.985352 322.993439,312.988708  z"/>
<path fill="#D1CE9F" opacity="1.000000" stroke="none" d=" M331.408813,264.993195   C330.942474,264.813965 330.951385,264.644348 330.977966,264.220245   C343.626312,263.965759 356.256958,263.965759 368.887634,263.965759   C368.889465,264.311462 368.891296,264.657135 368.893127,265.002838   C356.556793,265.002838 344.220428,265.002838 331.408813,264.993195  z"/>
<path fill="#ECA07D" opacity="1.000000" stroke="none" d=" M317.709473,248.703201   C305.616486,248.996964 293.229370,248.993332 280.390320,248.732056   C279.938385,248.474426 279.958710,247.978653 279.958710,247.978653   C279.958710,247.978653 280.398071,247.934418 280.616882,247.916260   C293.028931,248.067337 305.222168,248.236557 317.709473,248.703201  z"/>
<path fill="#E4E2AA" opacity="1.000000" stroke="none" d=" M348.045593,281.003662   C344.439423,281.003662 341.324219,281.003662 338.209015,281.003662   C338.210388,280.778259 338.211761,280.552856 338.213135,280.327454   C348.400757,280.327454 358.588379,280.327454 368.776001,280.327454   C368.784088,280.552856 368.792145,280.778259 368.800232,281.003662   C362.045685,281.003662 355.291138,281.003662 348.045593,281.003662  z"/>
<path fill="#D1CE9F" opacity="1.000000" stroke="none" d=" M252.460007,298.000671   C251.990463,297.994110 252.040649,297.512421 252.068207,297.272095   C252.557266,297.016785 253.018784,297.001831 254.276169,296.981445   C263.388367,296.979340 271.704681,296.982697 280.020996,296.986084   C280.020996,296.986084 280.499115,297.010620 280.732483,297.254639   C280.965881,297.498627 280.996918,297.965790 280.996918,297.965790   C280.996918,297.965790 280.520508,297.987640 280.282776,297.999023   C271.006531,298.009338 261.968048,298.008270 252.460007,298.000671  z"/>
<path fill="#DFD9A5" opacity="1.000000" stroke="none" d=" M279.494019,247.983063   C279.958710,247.978653 279.938385,248.474426 279.914978,248.721191   C279.724182,248.972748 279.556763,248.977539 278.681763,248.993591   C269.283142,248.984238 260.592102,248.963638 251.901077,248.943039   C251.921967,248.777161 251.942871,248.611267 252.010223,248.198364   C261.047546,247.963379 270.038422,247.975418 279.494019,247.983063  z"/>
<path fill="#ECA07D" opacity="1.000000" stroke="none" d=" M294.811676,214.969254   C295.028046,214.995071 295.046387,215.489044 294.574707,215.743179   C285.101135,215.987686 276.099182,215.978058 267.053894,215.987122   C267.010529,216.005814 266.921967,216.038712 266.921967,216.038712   C266.941711,215.867035 266.961426,215.695343 266.996185,215.264923   C267.011200,215.006180 267.428345,214.952469 267.636169,214.929245   C276.293610,214.927399 284.743286,214.948761 293.677094,214.936905   C294.161255,214.903687 294.595306,214.943436 294.811676,214.969254  z"/>
<path fill="#ECA07D" opacity="1.000000" stroke="none" d=" M347.454193,249.072632   C339.082886,249.060577 331.007965,249.030396 322.463715,249.000732   C325.350983,248.667679 328.704132,248.103867 332.065002,248.053055   C337.485474,247.971130 342.911041,248.227219 348.631348,248.616913   C348.535675,248.947037 348.143127,249.000793 347.454193,249.072632  z"/>
<path fill="#F9AC84" opacity="1.000000" stroke="none" d=" M232.098267,265.304382   C234.780228,264.681549 237.428589,264.397614 240.538086,264.306030   C241.044632,264.665009 241.090012,264.831635 241.107635,265.331055   C241.065048,266.108887 241.050232,266.553925 241.035400,266.998932   C238.360184,266.999359 235.684982,266.999786 232.572479,267.000732   C232.111679,266.548553 232.088165,266.095917 232.098267,265.304382  z"/>
<path fill="#E4E2AA" opacity="1.000000" stroke="none" d=" M324.951569,279.993469   C324.951569,279.993469 325.393646,279.955536 325.613739,279.951782   C328.469604,279.948059 331.105377,279.948059 333.741180,279.948059   C333.757507,280.298798 333.773865,280.649536 333.790192,281.000275   C331.195251,281.000275 328.600311,281.000275 325.571655,280.992676   C325.137970,280.985107 325.013306,281.002441 324.988586,280.756439   C324.959747,280.338104 324.955658,280.165802 324.951569,279.993469  z"/>
<path fill="#E4E2AA" opacity="1.000000" stroke="none" d=" M167.018738,282.493530   C166.248810,282.742950 165.461212,282.633606 164.387741,282.459045   C164.532257,281.655823 164.962631,280.917847 165.393005,280.179901   C165.929031,280.831543 166.465057,281.483185 167.018738,282.493530  z"/>
<path fill="#D1CE9F" opacity="1.000000" stroke="none" d=" M166.263123,259.011566   C166.044769,258.686523 166.237579,258.436951 166.782990,258.308685   C167.022507,258.342560 167.058105,258.479034 167.036682,258.545776   C166.863907,258.741547 166.712540,258.870575 166.263123,259.011566  z"/>
<path fill="#FFFFFF" opacity="1.000000" stroke="none" d=" M119.995438,184.994186   C120.104195,184.965881 120.218246,184.943985 120.173401,184.967041   C120.014511,185.011993 120.000717,185.000595 119.995438,184.994186  z"/>
<path fill="#F5F3B3" opacity="1.000000" stroke="none" d=" M280.025330,296.609680   C271.704681,296.982697 263.388367,296.979340 254.623047,296.966614   C261.008789,293.694031 266.722534,289.124023 271.255676,282.373962   C272.057098,282.088684 272.426971,282.104034 272.796814,282.119354   C275.207733,286.823975 277.618683,291.528625 280.025330,296.609680  z"/>
<path fill="#F0A47F" opacity="1.000000" stroke="none" d=" M273.283691,282.077942   C272.426971,282.104034 272.057098,282.088684 271.410004,282.072266   C258.115082,282.048462 245.097397,282.025787 231.630249,282.012146   C231.136383,281.567871 231.092026,281.114624 231.085297,280.320679   C257.513885,279.979980 283.904846,279.979980 310.295807,279.979980   C310.309143,280.665497 310.322479,281.351044 310.335815,282.036560   C298.147400,282.036560 285.958954,282.036560 273.283691,282.077942  z"/>
<path fill="#F5F3B3" opacity="1.000000" stroke="none" d=" M241.183426,267.305908   C241.050232,266.553925 241.065048,266.108887 241.558746,265.331635   C246.410599,264.982788 250.783585,264.966156 255.373657,264.956696   C255.590714,264.963837 256.022583,265.010254 256.022583,265.010254   C255.807327,265.962921 255.894516,267.187073 255.324890,267.821655   C252.728378,270.714264 249.947311,273.441162 246.976120,276.490936   C245.211746,273.715912 243.271591,270.664398 241.183426,267.305908  z"/>
<path fill="#DF9276" opacity="1.000000" stroke="none" d=" M256.488953,265.003540   C256.022583,265.010254 255.590714,264.963837 255.489288,264.710236   C255.901886,264.286530 256.415924,264.116425 256.929962,263.946289   C279.276855,263.964630 301.623810,263.974701 323.970642,264.016998   C325.772705,264.020416 327.574402,264.245148 329.658020,264.666138   C305.611664,264.975739 281.283508,264.986267 256.488953,265.003540  z"/>
<path fill="#DF9276" opacity="1.000000" stroke="none" d=" M281.465881,297.977173   C280.996918,297.965790 280.965881,297.498627 280.971619,297.265015   C293.631012,297.024841 306.284637,297.018311 319.390259,297.018372   C319.842285,297.024933 319.901794,297.496582 319.866638,297.731506   C307.199310,297.973816 294.567078,297.981201 281.465881,297.977173  z"/>
<path fill="#F0A47F" opacity="1.000000" stroke="none" d=" M324.708069,280.011749   C324.955658,280.165802 324.959747,280.338104 324.926514,280.766602   C324.484100,280.839233 324.079071,280.655670 323.674042,280.472107   C323.937531,280.324738 324.201050,280.177399 324.708069,280.011749  z"/>
<path fill="#F6E7AB" opacity="1.000000" stroke="none" d=" M301.932587,233.328613   C301.957428,232.547958 301.979767,232.103836 302.477478,231.328262   C313.602112,230.986053 324.251373,230.975281 334.900604,230.964508   C334.455597,231.296371 334.010590,231.628265 333.278137,232.019424   C332.227661,232.067627 331.464661,232.056534 329.882416,232.044281   C326.027069,232.359375 322.991028,232.675674 319.954956,232.991974   C318.255249,233.878693 316.311615,234.483002 314.899445,235.702667   C309.737000,240.161469 307.033875,240.530792 300.468323,236.966553   C300.946594,235.886353 301.438354,234.775742 301.932587,233.328613  z"/>
<path fill="#ECA07D" opacity="1.000000" stroke="none" d=" M320.405182,232.992126   C322.991028,232.675674 326.027069,232.359375 329.501770,232.076492   C326.912079,232.404022 323.883728,232.698151 320.405182,232.992126  z"/>
<path fill="#F6F3B3" opacity="1.000000" stroke="none" d=" M256.984375,263.597626   C256.415924,264.116425 255.901886,264.286530 255.272217,264.703094   C250.783585,264.966156 246.410599,264.982788 241.586487,264.998840   C241.090012,264.831635 241.044632,264.665009 240.927490,264.249146   C240.373169,259.316132 241.920761,255.868149 246.376419,253.669220   C247.827393,252.953156 248.688599,251.042023 250.005310,249.389938   C250.571320,249.068436 250.951538,249.034470 251.616425,248.971771   C260.592102,248.963638 269.283142,248.984238 278.430908,249.006348   C277.512421,249.660004 276.122742,250.902100 274.764313,250.868866   C265.732880,250.647812 260.335114,255.386566 256.984375,263.597626  z"/>
<path fill="#F6F3B3" opacity="1.000000" stroke="none" d=" M335.134827,230.945618   C324.251373,230.975281 313.602112,230.986053 302.486206,230.994675   C302.019501,230.992523 301.617493,230.921417 301.363220,230.517502   C299.399445,225.414047 297.689911,220.714523 295.980408,216.014984   C313.941254,216.021149 331.902130,216.027328 350.302856,216.063782   C350.910339,218.182755 350.699890,220.392715 351.322845,222.335373   C352.692963,226.607758 350.246490,227.247986 347.277985,226.499069   C342.578033,225.313339 339.322906,227.366760 336.026733,230.597778   C335.837555,230.889130 335.369080,230.926727 335.134827,230.945618  z"/>
<path fill="#ECA07D" opacity="1.000000" stroke="none" d=" M322.356445,312.996277   C322.836792,313.162170 322.867676,313.330078 322.874817,313.753174   C308.545044,314.005707 294.238953,314.003021 279.463623,313.995300   C278.994354,313.990234 278.982544,313.495148 279.004700,313.248535   C293.320251,313.000702 307.613617,312.999481 322.356445,312.996277  z"/>
<path fill="#F5F3B3" opacity="1.000000" stroke="none" d=" M166.579529,284.973206   C165.882141,286.126770 164.652451,287.219360 163.562210,288.436859   C161.511887,290.726501 159.405487,292.134521 156.555908,288.554749   C156.189682,289.072632 155.823456,289.590546 155.457230,290.108429   C156.621964,291.959442 157.786697,293.810425 159.209351,296.071350   C161.544296,294.171204 163.432541,292.634583 165.665710,291.027954   C166.010635,292.763367 166.010635,294.568817 166.010635,296.803467   C162.032639,296.803467 158.344391,296.803467 154.207764,296.803467   C154.207764,293.217316 154.207764,289.524933 154.207764,284.968628   C158.039764,284.968628 162.074966,284.968628 166.579529,284.973206  z"/>
<path fill="#F5F3B3" opacity="1.000000" stroke="none" d=" M167.361542,217.281738   C200.249161,216.687454 233.125000,216.351410 266.461395,216.027039   C266.921967,216.038712 267.010529,216.005814 266.974976,216.380615   C265.109955,223.112808 266.276306,226.324738 272.110870,230.996719   C237.776062,231.326538 203.441254,231.656357 168.653473,231.969635   C168.029831,229.214020 167.859161,226.474930 167.625061,223.279633   C167.701096,221.547745 167.840607,220.272079 167.920120,218.807098   C167.741196,218.370346 167.560059,218.183090 167.316681,218.056015   C167.327698,217.884018 167.338715,217.712021 167.361542,217.281738  z"/>
<path fill="#F6E7AB" opacity="1.000000" stroke="none" d=" M166.039749,225.005829   C165.959244,226.812881 165.878723,228.619919 165.783844,230.749680   C161.920380,230.749680 158.197937,230.749680 154.104279,230.749680   C154.104279,226.934540 154.104279,223.226105 154.104279,219.208267   C158.081192,219.208267 161.964844,219.208267 165.804138,219.815216   C162.849335,222.262024 160.912674,227.083847 155.980545,222.732742   C155.814972,223.163086 155.649384,223.593430 155.483810,224.023773   C156.704193,225.816864 157.924591,227.609940 159.144318,229.402039   C161.755478,227.737274 163.897614,226.371552 166.039749,225.005829  z"/>
<path fill="#FE423C" opacity="1.000000" stroke="none" d=" M166.026535,225.025146   C163.897614,226.371552 161.755478,227.737274 159.144318,229.402039   C157.924591,227.609940 156.704193,225.816864 155.483810,224.023773   C155.649384,223.593430 155.814972,223.163086 155.980545,222.732742   C160.912674,227.083847 162.849335,222.262024 166.041626,220.207550   C166.525452,219.918259 166.690582,219.794403 167.123169,219.330719   C167.611710,219.025513 167.795914,219.010956 167.980118,218.996399   C167.840607,220.272079 167.701096,221.547745 167.291519,223.114685   C167.021439,223.405945 167.028687,223.401199 166.775742,223.649139   C166.337311,224.278152 166.151810,224.659210 165.966309,225.040268   C165.966309,225.040268 166.013321,225.044464 166.026535,225.025146  z"/>
<path fill="#F6E7AB" opacity="1.000000" stroke="none" d=" M166.247192,224.861298   C166.151810,224.659210 166.337311,224.278152 166.774017,223.674789   C166.859528,223.862442 166.693802,224.272385 166.247192,224.861298  z"/>
<path fill="#E4E2AA" opacity="1.000000" stroke="none" d=" M167.920120,218.807098   C167.795914,219.010956 167.611710,219.025513 167.194458,219.190720   C166.953827,219.108658 166.946259,218.875931 167.127686,218.349609   C167.560059,218.183090 167.741196,218.370346 167.920120,218.807098  z"/>
<path fill="#F9AC84" opacity="1.000000" stroke="none" d=" M272.417542,231.019043   C266.276306,226.324738 265.109955,223.112808 267.018372,216.361908   C276.099182,215.978058 285.101135,215.987686 294.577209,215.990311   C295.051331,215.983307 295.516083,215.998276 295.748230,216.006622   C297.689911,220.714523 299.399445,225.414047 301.159851,230.499908   C292.670807,231.056839 284.130829,231.227432 275.296234,231.693420   C274.242493,231.672989 273.483337,231.357178 272.417542,231.019043  z"/>
</svg>